<svg width="120" height="120" viewBox="0 0 120 120" fill="none" xmlns="http://www.w3.org/2000/svg">
<g clip-path="url(#clip0_59_214)">
<path d="M120 60C120 26.8629 93.1371 0 60 0C26.8629 0 0 26.8629 0 60C0 93.1371 26.8629 120 60 120C93.1371 120 120 93.1371 120 60Z" fill="#45BA65"/>
<path d="M89.9111 42.1054C89.8704 41.418 89.5789 40.7695 89.0923 40.2827C88.6054 39.796 87.957 39.5046 87.2696 39.4639C74.7844 38.7304 64.7229 42.5952 60.354 49.8092C57.5087 54.4967 57.4104 60.1615 60.0118 65.5827C58.7456 67.198 57.7714 69.0222 57.1337 70.9733L54.1665 68.0061C55.8517 64.0757 55.6736 60.0115 53.604 56.5943C50.3274 51.178 42.8649 48.2811 33.6446 48.8132C32.9569 48.8539 32.3083 49.1455 31.8214 49.6328C31.3346 50.1201 31.0434 50.7692 31.0033 51.4568C30.4689 60.6771 33.3658 68.1396 38.7774 71.4162C40.6129 72.5348 42.7217 73.1245 44.8712 73.1202C46.7038 73.1055 48.5141 72.717 50.1915 71.9787L56.2502 78.0467V83.4372C56.2502 84.1832 56.5464 84.8987 57.0739 85.426C57.6013 85.9536 58.3168 86.2497 59.0627 86.2497C59.8084 86.2497 60.5239 85.9536 61.0513 85.426C61.5789 84.8987 61.8752 84.1832 61.8752 83.4372V76.5257C61.8692 74.0115 62.6467 71.5581 64.0993 69.5061C66.4524 70.6208 69.0193 71.2116 71.6229 71.2382C74.424 71.2446 77.1729 70.4772 79.5658 69.021C86.7774 64.6521 90.6469 54.5905 89.9111 42.1054ZM41.6908 66.6045C38.5993 64.7295 36.7267 60.1686 36.5743 54.3865C42.3564 54.5389 46.9196 56.4115 48.7922 59.503C49.5247 60.6942 49.8251 62.101 49.6432 63.4872L46.9877 60.8224C46.4593 60.2942 45.7427 59.9974 44.9955 59.9974C44.2483 59.9974 43.5315 60.2942 43.0033 60.8224C42.4749 61.3508 42.1781 62.0674 42.1781 62.8146C42.1781 63.5618 42.4749 64.2786 43.0033 64.8068L45.6611 67.4646C44.2785 67.6354 42.8788 67.3322 41.6908 66.6045ZM76.6524 64.2186C74.154 65.7304 71.2618 66.0162 68.2594 65.0997L76.9899 56.3717C77.5183 55.8432 77.8151 55.1267 77.8151 54.3795C77.8151 53.6322 77.5183 52.9157 76.9899 52.3872C76.4617 51.859 75.7451 51.5622 74.9979 51.5622C74.2507 51.5622 73.5339 51.859 73.0057 52.3872L64.2752 61.1155C63.3682 58.1247 63.654 55.221 65.1564 52.7342C68.133 47.8122 75.1524 44.9997 84.2158 44.9997H84.3752C84.408 54.1405 81.5955 61.2139 76.6524 64.2186Z" fill="white"/>
</g>
<defs>
<clipPath id="clip0_59_214">
<rect width="120" height="120" fill="white"/>
</clipPath>
</defs>
</svg>
