<svg width="18" height="19" viewBox="0 0 18 19" fill="none" xmlns="http://www.w3.org/2000/svg">
<path d="M9.00074 1.85547C13.143 1.85547 16.5007 5.21322 16.5007 9.35547C16.5007 13.4977 13.143 16.8555 9.00074 16.8555C7.67531 16.8578 6.37318 16.507 5.22824 15.8392L1.50374 16.8555L2.51774 13.1295C1.84946 11.9842 1.49842 10.6815 1.50074 9.35547C1.50074 5.21322 4.85849 1.85547 9.00074 1.85547ZM6.44474 5.83047L6.29474 5.83647C6.19776 5.84315 6.103 5.86862 6.01574 5.91147C5.93443 5.9576 5.86017 6.01519 5.79524 6.08247C5.70524 6.16722 5.65424 6.24072 5.59949 6.31197C5.32209 6.67265 5.17272 7.11545 5.17499 7.57047C5.17649 7.93797 5.27249 8.29572 5.42249 8.63022C5.72924 9.30672 6.23399 10.023 6.89999 10.6867C7.06049 10.8465 7.21799 11.007 7.38749 11.1562C8.21507 11.8848 9.2012 12.4102 10.2675 12.6907L10.6935 12.756C10.8322 12.7635 10.971 12.753 11.1105 12.7462C11.3289 12.7347 11.5421 12.6756 11.7352 12.573C11.8334 12.5222 11.9292 12.4672 12.0225 12.408C12.0225 12.408 12.0542 12.3865 12.1162 12.3405C12.2175 12.2655 12.2797 12.2122 12.3637 12.1245C12.4267 12.0595 12.4792 11.984 12.5212 11.898C12.5797 11.7757 12.6382 11.5425 12.6622 11.3482C12.6802 11.1997 12.675 11.1187 12.6727 11.0685C12.6697 10.9882 12.603 10.905 12.5302 10.8697L12.0937 10.674C12.0937 10.674 11.4412 10.3897 11.0422 10.2082C11.0005 10.19 10.9557 10.1796 10.9102 10.1775C10.8589 10.1721 10.807 10.1778 10.7581 10.1943C10.7092 10.2107 10.6644 10.2375 10.6267 10.2727C10.623 10.2712 10.5727 10.314 10.0305 10.971C9.99937 11.0128 9.9565 11.0444 9.90735 11.0618C9.85819 11.0791 9.80498 11.0815 9.75449 11.0685C9.70561 11.0554 9.65774 11.0389 9.61124 11.019C9.51824 10.98 9.48599 10.965 9.42224 10.938C8.99165 10.7504 8.59307 10.4966 8.24099 10.1857C8.14649 10.1032 8.05874 10.0132 7.96874 9.92622C7.6737 9.64362 7.41656 9.32396 7.20374 8.97522L7.15949 8.90397C7.12819 8.85582 7.10252 8.80423 7.08299 8.75022C7.05449 8.63997 7.12874 8.55147 7.12874 8.55147C7.12874 8.55147 7.31099 8.35197 7.39574 8.24397C7.47824 8.13897 7.54799 8.03697 7.59299 7.96422C7.68149 7.82172 7.70924 7.67547 7.66274 7.56222C7.45274 7.04922 7.23574 6.53897 7.01174 6.03147C6.96749 5.93097 6.83624 5.85897 6.71699 5.84472C6.67649 5.83972 6.63599 5.83572 6.59549 5.83272C6.49479 5.82694 6.39381 5.82794 6.29324 5.83572L6.44474 5.83047Z" fill="white"/>
</svg>
