<svg width="24" height="25" viewBox="0 0 24 25" fill="none" xmlns="http://www.w3.org/2000/svg">
<path fill-rule="evenodd" clip-rule="evenodd" d="M12 4.35547C12.855 4.35547 13.732 4.37747 14.582 4.41347L15.586 4.46147L16.547 4.51847L17.447 4.57947L18.269 4.64347C19.1612 4.71136 20.0008 5.0919 20.64 5.71807C21.2791 6.34424 21.6768 7.17586 21.763 8.06647L21.803 8.49147L21.878 9.40147C21.948 10.3445 22 11.3725 22 12.3555C22 13.3385 21.948 14.3665 21.878 15.3095L21.803 16.2195L21.763 16.6445C21.6768 17.5352 21.2789 18.367 20.6396 18.9932C20.0002 19.6194 19.1604 19.9998 18.268 20.0675L17.448 20.1305L16.548 20.1925L15.586 20.2495L14.582 20.2975C13.7218 20.3347 12.861 20.3541 12 20.3555C11.139 20.3541 10.2782 20.3347 9.418 20.2975L8.414 20.2495L7.453 20.1925L6.553 20.1305L5.731 20.0675C4.83881 19.9996 3.9992 19.619 3.36004 18.9929C2.72089 18.3667 2.32319 17.5351 2.237 16.6445L2.197 16.2195L2.122 15.3095C2.04583 14.3266 2.00514 13.3413 2 12.3555C2 11.3725 2.052 10.3445 2.122 9.40147L2.197 8.49147L2.237 8.06647C2.32316 7.17602 2.72071 6.34452 3.35966 5.71837C3.99861 5.09223 4.83799 4.71159 5.73 4.64347L6.551 4.57947L7.451 4.51847L8.413 4.46147L9.417 4.41347C10.2775 4.3762 11.1387 4.35686 12 4.35547ZM10 9.93047V14.7805C10 15.2425 10.5 15.5305 10.9 15.3005L15.1 12.8755C15.1914 12.8229 15.2673 12.7471 15.3201 12.6558C15.3729 12.5645 15.4007 12.4609 15.4007 12.3555C15.4007 12.25 15.3729 12.1464 15.3201 12.0551C15.2673 11.9638 15.1914 11.8881 15.1 11.8355L10.9 9.41147C10.8088 9.35879 10.7053 9.33107 10.5999 9.33108C10.4945 9.3311 10.3911 9.35886 10.2998 9.41156C10.2086 9.46427 10.1329 9.54007 10.0802 9.63133C10.0276 9.7226 9.99993 9.82611 10 9.93147V9.93047Z" fill="white"/>
</svg>
