<svg width="28" height="29" viewBox="0 0 28 29" fill="none" xmlns="http://www.w3.org/2000/svg">
<path d="M27.9585 6.00457C27.9395 5.68385 27.8035 5.38123 27.5764 5.15404C27.3492 4.92686 27.0466 4.7909 26.7258 4.77191C20.8994 4.42957 16.204 6.23316 14.1652 9.59973C12.8374 11.7872 12.7915 14.4308 14.0055 16.9607C13.4146 17.7145 12.96 18.5658 12.6624 19.4763L11.2777 18.0916C12.0641 16.2574 11.981 14.3608 11.0152 12.7661C9.48614 10.2385 6.00364 8.8866 1.70083 9.13488C1.37993 9.15389 1.07717 9.29001 0.849958 9.51742C0.62275 9.74483 0.486901 10.0477 0.468176 10.3686C0.218801 14.6714 1.57068 18.1539 4.09614 19.683C4.95267 20.2051 5.93681 20.4802 6.93989 20.4782C7.79511 20.4713 8.63993 20.29 9.42271 19.9455L12.2501 22.7772V25.2929C12.2501 25.6409 12.3883 25.9748 12.6345 26.2209C12.8806 26.4671 13.2145 26.6053 13.5626 26.6053C13.9106 26.6053 14.2445 26.4671 14.4906 26.2209C14.7368 25.9748 14.8751 25.6409 14.8751 25.2929V22.0674C14.8723 20.8941 15.2351 19.7492 15.913 18.7916C17.0111 19.3118 18.209 19.5876 19.424 19.5999C20.7312 19.6029 22.014 19.2448 23.1307 18.5652C26.4961 16.5264 28.3019 11.831 27.9585 6.00457ZM5.45568 17.4375C4.01302 16.5625 3.13911 14.4341 3.06802 11.7358C5.7663 11.8069 7.89583 12.6808 8.76974 14.1235C9.11149 14.6794 9.25167 15.3359 9.16677 15.9829L7.92755 14.7393C7.68098 14.4927 7.34656 14.3542 6.99786 14.3542C6.64916 14.3542 6.31474 14.4927 6.06818 14.7393C5.82161 14.9858 5.68309 15.3202 5.68309 15.6689C5.68309 16.0176 5.82161 16.3521 6.06818 16.5986L7.30849 17.8389C6.66326 17.9186 6.01008 17.7771 5.45568 17.4375ZM21.7711 16.3241C20.6052 17.0296 19.2555 17.163 17.8544 16.7353L21.9286 12.6622C22.1752 12.4157 22.3137 12.0812 22.3137 11.7325C22.3137 11.3838 22.1752 11.0494 21.9286 10.8029C21.6821 10.5563 21.3477 10.4178 20.999 10.4178C20.6503 10.4178 20.3158 10.5563 20.0693 10.8029L15.9951 14.876C15.5718 13.4803 15.7052 12.1252 16.4063 10.9647C17.7954 8.66785 21.0711 7.35535 25.3007 7.35535H25.3751C25.3904 11.621 24.0779 14.9219 21.7711 16.3241Z" fill="#45BA65"/>
</svg>
