<svg width="25" height="24" viewBox="0 0 25 24" fill="none" xmlns="http://www.w3.org/2000/svg">
<path d="M11.7213 15.864C11.7213 14.976 11.4813 14.208 10.9893 13.584C10.2453 12.648 8.79326 12.528 7.95326 12.72C7.60526 10.74 9.28526 8.22005 11.4573 7.14005L9.78926 4.80005C6.51326 6.36005 3.28526 9.93605 3.83726 14.46C4.18526 17.316 5.84126 19.2 8.18126 19.2C9.20126 19.2 10.0533 18.9 10.7253 18.3C11.3973 17.7 11.7213 16.884 11.7213 15.864ZM21.3813 15.864C21.3813 14.976 21.1413 14.208 20.6493 13.584C19.8933 12.648 18.4533 12.528 17.6133 12.72C17.2653 10.74 18.9453 8.22005 21.1173 7.14005L19.4493 4.80005C16.1733 6.36005 12.9573 9.93605 13.5093 14.46C13.8573 17.316 15.5013 19.2 17.8413 19.2C18.8613 19.2 19.7133 18.9 20.3853 18.3C21.0573 17.7 21.3813 16.884 21.3813 15.864Z" fill="#45BA65"/>
</svg>
