<svg width="87" height="19" viewBox="0 0 87 19" fill="none" xmlns="http://www.w3.org/2000/svg">
<path d="M4.424 13.3395V9.93147H7.568C8.176 9.93147 8.696 9.81147 9.128 9.57147C9.576 9.33147 9.92 8.99547 10.16 8.56347C10.4 8.11547 10.52 7.60347 10.52 7.02747C10.52 6.41947 10.4 5.89947 10.16 5.46747C9.92 5.01947 9.576 4.68347 9.128 4.45947C8.696 4.21947 8.176 4.09947 7.568 4.09947H4.424V0.691467H7.376C8.864 0.691467 10.136 0.939467 11.192 1.43547C12.264 1.93147 13.08 2.63547 13.64 3.54747C14.216 4.45947 14.504 5.55547 14.504 6.83547V7.21947C14.504 8.46747 14.216 9.55547 13.64 10.4835C13.08 11.3955 12.264 12.0995 11.192 12.5955C10.136 13.0915 8.864 13.3395 7.376 13.3395H4.424ZM0.968 18.3555V0.691467H4.904V18.3555H0.968ZM16.9278 18.3555V0.835468H20.7918V18.3555H16.9278ZM15.3678 3.66747V0.835468H20.7918V3.66747H15.3678ZM32.2741 18.3555V14.4675H31.6261V10.2435C31.6261 9.57147 31.4661 9.06747 31.1461 8.73147C30.8261 8.39547 30.3141 8.22747 29.6101 8.22747C29.2581 8.22747 28.7941 8.23547 28.2181 8.25147C27.6421 8.26747 27.0501 8.29147 26.4421 8.32347C25.8341 8.35547 25.2821 8.38747 24.7861 8.41947V5.17947C25.1541 5.14747 25.5861 5.11547 26.0821 5.08347C26.5781 5.05147 27.0901 5.02747 27.6181 5.01147C28.1461 4.99547 28.6421 4.98747 29.1061 4.98747C30.4501 4.98747 31.5781 5.17947 32.4901 5.56347C33.4181 5.94747 34.1221 6.53147 34.6021 7.31547C35.0821 8.08347 35.3221 9.07547 35.3221 10.2915V18.3555H32.2741ZM28.0741 18.6915C27.1301 18.6915 26.2981 18.5235 25.5781 18.1875C24.8741 17.8515 24.3221 17.3715 23.9221 16.7475C23.5221 16.1075 23.3221 15.3475 23.3221 14.4675C23.3221 13.5075 23.5701 12.7235 24.0661 12.1155C24.5621 11.4915 25.2581 11.0355 26.1541 10.7475C27.0501 10.4435 28.0821 10.2915 29.2501 10.2915H32.0581V12.4275H29.2261C28.5541 12.4275 28.0341 12.5955 27.6661 12.9315C27.3141 13.2515 27.1381 13.6915 27.1381 14.2515C27.1381 14.7795 27.3141 15.2115 27.6661 15.5475C28.0341 15.8675 28.5541 16.0275 29.2261 16.0275C29.6581 16.0275 30.0421 15.9555 30.3781 15.8115C30.7301 15.6515 31.0181 15.3875 31.2421 15.0195C31.4661 14.6515 31.5941 14.1395 31.6261 13.4835L32.5381 14.4435C32.4581 15.3555 32.2341 16.1235 31.8661 16.7475C31.5141 17.3715 31.0181 17.8515 30.3781 18.1875C29.7541 18.5235 28.9861 18.6915 28.0741 18.6915ZM38.5801 18.3555V5.20347H41.6281V10.8435H41.4121C41.4121 9.49947 41.5801 8.37947 41.9161 7.48347C42.2681 6.58747 42.7961 5.91547 43.5001 5.46747C44.2041 5.01947 45.0601 4.79547 46.0681 4.79547H46.2361C47.7721 4.79547 48.9401 5.29947 49.7401 6.30747C50.5561 7.29947 50.9641 8.81147 50.9641 10.8435V18.3555H47.1241V10.6275C47.1241 9.92347 46.9161 9.34747 46.5001 8.89947C46.0841 8.45147 45.5241 8.22747 44.8201 8.22747C44.1001 8.22747 43.5161 8.45947 43.0681 8.92347C42.6361 9.37147 42.4201 9.96347 42.4201 10.6995V18.3555H38.5801ZM60.2124 18.5235C58.8844 18.5235 57.8124 18.3635 56.9964 18.0435C56.1804 17.7075 55.5804 17.1555 55.1964 16.3875C54.8284 15.6035 54.6444 14.5475 54.6444 13.2195V1.65147H58.2204V13.3635C58.2204 13.9875 58.3804 14.4675 58.7004 14.8035C59.0364 15.1235 59.5084 15.2835 60.1164 15.2835H62.0604V18.5235H60.2124ZM52.6524 8.01147V5.20347H62.0604V8.01147H52.6524ZM72.5398 18.3555V14.4675H71.8918V10.2435C71.8918 9.57147 71.7318 9.06747 71.4118 8.73147C71.0918 8.39547 70.5798 8.22747 69.8758 8.22747C69.5238 8.22747 69.0598 8.23547 68.4838 8.25147C67.9078 8.26747 67.3158 8.29147 66.7078 8.32347C66.0998 8.35547 65.5478 8.38747 65.0518 8.41947V5.17947C65.4198 5.14747 65.8518 5.11547 66.3478 5.08347C66.8438 5.05147 67.3558 5.02747 67.8838 5.01147C68.4118 4.99547 68.9078 4.98747 69.3718 4.98747C70.7158 4.98747 71.8438 5.17947 72.7558 5.56347C73.6838 5.94747 74.3878 6.53147 74.8678 7.31547C75.3478 8.08347 75.5878 9.07547 75.5878 10.2915V18.3555H72.5398ZM68.3398 18.6915C67.3958 18.6915 66.5638 18.5235 65.8438 18.1875C65.1398 17.8515 64.5878 17.3715 64.1878 16.7475C63.7878 16.1075 63.5878 15.3475 63.5878 14.4675C63.5878 13.5075 63.8358 12.7235 64.3318 12.1155C64.8278 11.4915 65.5238 11.0355 66.4198 10.7475C67.3158 10.4435 68.3478 10.2915 69.5158 10.2915H72.3238V12.4275H69.4918C68.8198 12.4275 68.2998 12.5955 67.9318 12.9315C67.5798 13.2515 67.4038 13.6915 67.4038 14.2515C67.4038 14.7795 67.5798 15.2115 67.9318 15.5475C68.2998 15.8675 68.8198 16.0275 69.4918 16.0275C69.9238 16.0275 70.3078 15.9555 70.6438 15.8115C70.9958 15.6515 71.2838 15.3875 71.5078 15.0195C71.7318 14.6515 71.8598 14.1395 71.8918 13.4835L72.8038 14.4435C72.7238 15.3555 72.4998 16.1235 72.1318 16.7475C71.7798 17.3715 71.2838 17.8515 70.6438 18.1875C70.0198 18.5235 69.2518 18.6915 68.3398 18.6915ZM78.8458 18.3555V5.20347H81.8938V10.8435H81.8218C81.8218 8.98747 82.2138 7.55547 82.9978 6.54747C83.7978 5.53947 84.9498 5.03547 86.4538 5.03547H86.9578V8.34747H85.9978C84.9418 8.34747 84.1258 8.63547 83.5498 9.21147C82.9738 9.77147 82.6858 10.5875 82.6858 11.6595V18.3555H78.8458Z" fill="#263238"/>
</svg>
